<svg width="32" height="32" viewBox="0 0 32 32" fill="none" xmlns="http://www.w3.org/2000/svg">
  <!-- Background circle -->
  <circle cx="16" cy="16" r="15" fill="#4F46E5" stroke="#312E81" stroke-width="2"/>
  
  <!-- Calendar grid -->
  <rect x="6" y="8" width="20" height="16" rx="2" fill="white" stroke="#E5E7EB" stroke-width="0.5"/>
  
  <!-- Calendar header -->
  <rect x="6" y="8" width="20" height="4" rx="2" fill="#F3F4F6"/>
  
  <!-- Calendar dots representing days -->
  <circle cx="9" cy="14" r="1" fill="#10B981"/>
  <circle cx="12" cy="14" r="1" fill="#10B981"/>
  <circle cx="15" cy="14" r="1" fill="#10B981"/>
  <circle cx="18" cy="14" r="1" fill="#10B981"/>
  <circle cx="21" cy="14" r="1" fill="#10B981"/>
  <circle cx="23" cy="14" r="1" fill="#10B981"/>
  
  <circle cx="9" cy="17" r="1" fill="#10B981"/>
  <circle cx="12" cy="17" r="1" fill="#10B981"/>
  <circle cx="15" cy="17" r="1" fill="#10B981"/>
  <circle cx="18" cy="17" r="1" fill="#10B981"/>
  <circle cx="21" cy="17" r="1" fill="#10B981"/>
  <circle cx="23" cy="17" r="1" fill="#10B981"/>
  
  <circle cx="9" cy="20" r="1" fill="#10B981"/>
  <circle cx="12" cy="20" r="1" fill="#10B981"/>
  <circle cx="15" cy="20" r="1" fill="#10B981"/>
  <circle cx="18" cy="20" r="1" fill="#10B981"/>
  <circle cx="21" cy="20" r="1" fill="#10B981"/>
  <circle cx="23" cy="20" r="1" fill="#10B981"/>
  
  <!-- Remaining days in lighter color -->
  <circle cx="9" cy="23" r="1" fill="#D1D5DB"/>
  <circle cx="12" cy="23" r="1" fill="#D1D5DB"/>
  <circle cx="15" cy="23" r="1" fill="#D1D5DB"/>
  
  <!-- Number 21 overlay -->
  <text x="16" y="11" text-anchor="middle" font-family="Arial, sans-serif" font-size="3" font-weight="bold" fill="#4F46E5">21</text>
</svg>
